<svg width="43" height="50" viewBox="0 0 43 50" fill="none" xmlns="http://www.w3.org/2000/svg">
<path d="M40.3206 15.5611C39.7088 15.2402 39.0346 15.055 38.3478 15.0303L39.1095 13.475C40.383 10.636 39.509 8.42647 37.3614 7.14273C36.6498 6.72304 35.8507 6.48851 35.0266 6.43914C36.6498 0.637607 29.0584 -2.65816 26.0992 2.73603C26.0992 2.73603 25.9119 3.16806 25.5124 3.95806C23.4647 1.2301 18.9448 2.08182 17.5964 5.01961L12.4772 15.45C12.7019 13.0677 11.4658 10.8335 8.86874 10.0558C5.44762 9.68553 4.82333 12.29 4.0492 15.5611C3.37497 19.3506 1.35226 22.597 0.590625 26.5223C-2.19372 40.1374 5.1105 49.8642 17.3591 50C23.8892 50 30.257 46.7783 32.8915 41.3718L42.2934 22.1526C43.7043 19.2519 42.9801 16.8572 40.3206 15.5858V15.5611ZM39.6963 20.3752L30.0947 40.014C26.9857 46.6055 16.9471 48.6175 10.6667 45.4205C3.81197 42.1247 2.80062 35.3357 3.15022 30.2254C3.35 27.2629 5.07304 22.6587 6.13434 19.1902C6.80858 17.5114 6.92095 13.1911 8.44422 13.2158C9.2558 13.2405 10.3171 14.2157 10.005 20.5356L6.82106 27.0531C11.0787 28.2875 14.35 32.1387 14.8495 36.496L18.0708 38.0266C18.1208 33.0151 15.3739 28.1147 11.0038 25.5595L20.4306 6.29101C21.0424 4.90852 23.2524 5.03196 23.7019 6.47617C23.8518 6.92054 23.8268 7.3896 23.627 7.80929L15.736 23.9425L18.5453 25.2756L28.9335 4.03212C29.333 3.16806 30.4568 2.79775 31.3058 3.21744C32.1673 3.61243 32.5669 4.72337 32.1299 5.56274L21.7042 26.8432L24.5135 28.1887L33.1287 10.5619C34.1276 8.36475 37.4738 9.79662 36.3002 12.0925L27.6849 29.707L30.4942 31.0278L36.425 18.9309C36.8246 18.0422 37.9982 17.6719 38.8473 18.141C39.6713 18.5236 40.0459 19.5728 39.6588 20.3752H39.6963Z" fill="#00AEEF"/>
</svg>
